<mxfile host="app.diagrams.net" modified="2023-10-09T14:38:30.243Z" agent="Mozilla/5.0 (Windows NT 10.0; Win64; x64) AppleWebKit/537.36 (KHTML, like Gecko) Chrome/117.0.0.0 Safari/537.36" etag="K7msN0q9_V8wxrnrbItM" version="22.0.4" type="device">
  <diagram name="Page-1" id="6X6vLOPVa2SzGYuHZmyN">
    <mxGraphModel dx="1880" dy="785" grid="1" gridSize="10" guides="1" tooltips="1" connect="1" arrows="1" fold="1" page="1" pageScale="1" pageWidth="827" pageHeight="1169" math="0" shadow="0">
      <root>
        <mxCell id="0" />
        <mxCell id="1" parent="0" />
        <mxCell id="ZUUnunzUDBEL_9jYccDT-11" value="Systeme" style="verticalAlign=top;align=left;spacingTop=8;spacingLeft=2;spacingRight=12;shape=cube;size=10;direction=south;fontStyle=4;html=1;whiteSpace=wrap;" vertex="1" parent="1">
          <mxGeometry x="160" y="40" width="600" height="970" as="geometry" />
        </mxCell>
        <mxCell id="ZUUnunzUDBEL_9jYccDT-37" style="edgeStyle=orthogonalEdgeStyle;rounded=0;orthogonalLoop=1;jettySize=auto;html=1;exitX=0.5;exitY=0.5;exitDx=0;exitDy=0;exitPerimeter=0;entryX=0;entryY=0.5;entryDx=0;entryDy=0;" edge="1" parent="1" source="ZUUnunzUDBEL_9jYccDT-13" target="ZUUnunzUDBEL_9jYccDT-16">
          <mxGeometry relative="1" as="geometry" />
        </mxCell>
        <mxCell id="ZUUnunzUDBEL_9jYccDT-38" style="edgeStyle=orthogonalEdgeStyle;rounded=0;orthogonalLoop=1;jettySize=auto;html=1;exitX=0.5;exitY=0.5;exitDx=0;exitDy=0;exitPerimeter=0;entryX=0;entryY=0.5;entryDx=0;entryDy=0;" edge="1" parent="1" source="ZUUnunzUDBEL_9jYccDT-13" target="ZUUnunzUDBEL_9jYccDT-15">
          <mxGeometry relative="1" as="geometry" />
        </mxCell>
        <mxCell id="ZUUnunzUDBEL_9jYccDT-39" style="edgeStyle=orthogonalEdgeStyle;rounded=0;orthogonalLoop=1;jettySize=auto;html=1;exitX=0.5;exitY=0.5;exitDx=0;exitDy=0;exitPerimeter=0;entryX=0;entryY=0.5;entryDx=0;entryDy=0;" edge="1" parent="1" source="ZUUnunzUDBEL_9jYccDT-13" target="ZUUnunzUDBEL_9jYccDT-17">
          <mxGeometry relative="1" as="geometry" />
        </mxCell>
        <mxCell id="ZUUnunzUDBEL_9jYccDT-40" style="edgeStyle=orthogonalEdgeStyle;rounded=0;orthogonalLoop=1;jettySize=auto;html=1;exitX=0.5;exitY=0.5;exitDx=0;exitDy=0;exitPerimeter=0;entryX=0;entryY=0.5;entryDx=0;entryDy=0;" edge="1" parent="1" source="ZUUnunzUDBEL_9jYccDT-13" target="ZUUnunzUDBEL_9jYccDT-18">
          <mxGeometry relative="1" as="geometry" />
        </mxCell>
        <mxCell id="ZUUnunzUDBEL_9jYccDT-41" style="edgeStyle=orthogonalEdgeStyle;rounded=0;orthogonalLoop=1;jettySize=auto;html=1;exitX=0.5;exitY=0.5;exitDx=0;exitDy=0;exitPerimeter=0;entryX=0;entryY=0.5;entryDx=0;entryDy=0;" edge="1" parent="1" source="ZUUnunzUDBEL_9jYccDT-13" target="ZUUnunzUDBEL_9jYccDT-19">
          <mxGeometry relative="1" as="geometry" />
        </mxCell>
        <mxCell id="ZUUnunzUDBEL_9jYccDT-42" style="edgeStyle=orthogonalEdgeStyle;rounded=0;orthogonalLoop=1;jettySize=auto;html=1;exitX=0.5;exitY=0.5;exitDx=0;exitDy=0;exitPerimeter=0;entryX=0;entryY=0.5;entryDx=0;entryDy=0;" edge="1" parent="1" source="ZUUnunzUDBEL_9jYccDT-13" target="ZUUnunzUDBEL_9jYccDT-25">
          <mxGeometry relative="1" as="geometry" />
        </mxCell>
        <mxCell id="ZUUnunzUDBEL_9jYccDT-43" style="edgeStyle=orthogonalEdgeStyle;rounded=0;orthogonalLoop=1;jettySize=auto;html=1;exitX=0.5;exitY=0.5;exitDx=0;exitDy=0;exitPerimeter=0;entryX=0;entryY=0.5;entryDx=0;entryDy=0;" edge="1" parent="1" source="ZUUnunzUDBEL_9jYccDT-13" target="ZUUnunzUDBEL_9jYccDT-27">
          <mxGeometry relative="1" as="geometry" />
        </mxCell>
        <mxCell id="ZUUnunzUDBEL_9jYccDT-44" style="edgeStyle=orthogonalEdgeStyle;rounded=0;orthogonalLoop=1;jettySize=auto;html=1;exitX=0.5;exitY=0.5;exitDx=0;exitDy=0;exitPerimeter=0;entryX=0;entryY=0.5;entryDx=0;entryDy=0;" edge="1" parent="1" source="ZUUnunzUDBEL_9jYccDT-13" target="ZUUnunzUDBEL_9jYccDT-21">
          <mxGeometry relative="1" as="geometry">
            <Array as="points">
              <mxPoint x="55" y="135" />
            </Array>
          </mxGeometry>
        </mxCell>
        <mxCell id="ZUUnunzUDBEL_9jYccDT-46" style="edgeStyle=orthogonalEdgeStyle;rounded=0;orthogonalLoop=1;jettySize=auto;html=1;exitX=0.5;exitY=0.5;exitDx=0;exitDy=0;exitPerimeter=0;entryX=0;entryY=0.5;entryDx=0;entryDy=0;" edge="1" parent="1" source="ZUUnunzUDBEL_9jYccDT-13" target="ZUUnunzUDBEL_9jYccDT-20">
          <mxGeometry relative="1" as="geometry">
            <Array as="points">
              <mxPoint x="55" y="225" />
            </Array>
          </mxGeometry>
        </mxCell>
        <mxCell id="ZUUnunzUDBEL_9jYccDT-47" style="edgeStyle=orthogonalEdgeStyle;rounded=0;orthogonalLoop=1;jettySize=auto;html=1;exitX=0.5;exitY=0.5;exitDx=0;exitDy=0;exitPerimeter=0;entryX=0;entryY=0.5;entryDx=0;entryDy=0;" edge="1" parent="1" source="ZUUnunzUDBEL_9jYccDT-13" target="ZUUnunzUDBEL_9jYccDT-23">
          <mxGeometry relative="1" as="geometry">
            <Array as="points">
              <mxPoint x="55" y="325" />
            </Array>
          </mxGeometry>
        </mxCell>
        <mxCell id="ZUUnunzUDBEL_9jYccDT-48" style="edgeStyle=orthogonalEdgeStyle;rounded=0;orthogonalLoop=1;jettySize=auto;html=1;exitX=0.5;exitY=0.5;exitDx=0;exitDy=0;exitPerimeter=0;entryX=0;entryY=0.5;entryDx=0;entryDy=0;" edge="1" parent="1" source="ZUUnunzUDBEL_9jYccDT-13" target="ZUUnunzUDBEL_9jYccDT-24">
          <mxGeometry relative="1" as="geometry">
            <Array as="points">
              <mxPoint x="55" y="415" />
            </Array>
          </mxGeometry>
        </mxCell>
        <mxCell id="ZUUnunzUDBEL_9jYccDT-51" style="edgeStyle=orthogonalEdgeStyle;rounded=0;orthogonalLoop=1;jettySize=auto;html=1;exitX=0.5;exitY=0.5;exitDx=0;exitDy=0;exitPerimeter=0;entryX=0;entryY=0.5;entryDx=0;entryDy=0;" edge="1" parent="1" source="ZUUnunzUDBEL_9jYccDT-13" target="ZUUnunzUDBEL_9jYccDT-26">
          <mxGeometry relative="1" as="geometry">
            <Array as="points">
              <mxPoint x="55" y="515" />
            </Array>
          </mxGeometry>
        </mxCell>
        <mxCell id="ZUUnunzUDBEL_9jYccDT-13" value="Client" style="shape=umlActor;verticalLabelPosition=bottom;verticalAlign=top;html=1;" vertex="1" parent="1">
          <mxGeometry x="40" y="80" width="30" height="60" as="geometry" />
        </mxCell>
        <mxCell id="ZUUnunzUDBEL_9jYccDT-14" value="Admin" style="shape=umlActor;verticalLabelPosition=bottom;verticalAlign=top;html=1;" vertex="1" parent="1">
          <mxGeometry x="40" y="540" width="30" height="60" as="geometry" />
        </mxCell>
        <mxCell id="ZUUnunzUDBEL_9jYccDT-15" value="gerer le profil utilisateur" style="ellipse;whiteSpace=wrap;html=1;" vertex="1" parent="1">
          <mxGeometry x="220" y="150" width="140" height="70" as="geometry" />
        </mxCell>
        <mxCell id="ZUUnunzUDBEL_9jYccDT-16" value="Creer un compteur utilisateur" style="ellipse;whiteSpace=wrap;html=1;" vertex="1" parent="1">
          <mxGeometry x="220" y="60" width="140" height="70" as="geometry" />
        </mxCell>
        <mxCell id="ZUUnunzUDBEL_9jYccDT-17" value="consulter catalogue" style="ellipse;whiteSpace=wrap;html=1;" vertex="1" parent="1">
          <mxGeometry x="220" y="240" width="140" height="70" as="geometry" />
        </mxCell>
        <mxCell id="ZUUnunzUDBEL_9jYccDT-18" value="filtrer et trier les vetements" style="ellipse;whiteSpace=wrap;html=1;" vertex="1" parent="1">
          <mxGeometry x="220" y="330" width="140" height="70" as="geometry" />
        </mxCell>
        <mxCell id="ZUUnunzUDBEL_9jYccDT-19" value="rechercher des articles" style="ellipse;whiteSpace=wrap;html=1;" vertex="1" parent="1">
          <mxGeometry x="220" y="420" width="140" height="70" as="geometry" />
        </mxCell>
        <mxCell id="ZUUnunzUDBEL_9jYccDT-20" value="suivre l&#39;historique des achats" style="ellipse;whiteSpace=wrap;html=1;" vertex="1" parent="1">
          <mxGeometry x="380" y="190" width="140" height="70" as="geometry" />
        </mxCell>
        <mxCell id="ZUUnunzUDBEL_9jYccDT-21" value="noter et laisser des avis" style="ellipse;whiteSpace=wrap;html=1;" vertex="1" parent="1">
          <mxGeometry x="380" y="100" width="140" height="70" as="geometry" />
        </mxCell>
        <mxCell id="ZUUnunzUDBEL_9jYccDT-23" value="ajouter des articles panier" style="ellipse;whiteSpace=wrap;html=1;" vertex="1" parent="1">
          <mxGeometry x="380" y="290" width="140" height="70" as="geometry" />
        </mxCell>
        <mxCell id="ZUUnunzUDBEL_9jYccDT-24" value="effectuer un paiment securiser" style="ellipse;whiteSpace=wrap;html=1;" vertex="1" parent="1">
          <mxGeometry x="380" y="380" width="140" height="70" as="geometry" />
        </mxCell>
        <mxCell id="ZUUnunzUDBEL_9jYccDT-25" value="creer une liste de souhait&amp;nbsp;" style="ellipse;whiteSpace=wrap;html=1;" vertex="1" parent="1">
          <mxGeometry x="220" y="510" width="140" height="70" as="geometry" />
        </mxCell>
        <mxCell id="ZUUnunzUDBEL_9jYccDT-26" value="recevoir des notifs en temps reel" style="ellipse;whiteSpace=wrap;html=1;" vertex="1" parent="1">
          <mxGeometry x="380" y="480" width="140" height="70" as="geometry" />
        </mxCell>
        <mxCell id="ZUUnunzUDBEL_9jYccDT-27" value="supprimer une commande" style="ellipse;whiteSpace=wrap;html=1;" vertex="1" parent="1">
          <mxGeometry x="220" y="600" width="140" height="70" as="geometry" />
        </mxCell>
        <mxCell id="ZUUnunzUDBEL_9jYccDT-33" value="" style="line;strokeWidth=1;fillColor=none;align=left;verticalAlign=middle;spacingTop=-1;spacingLeft=3;spacingRight=3;rotatable=0;labelPosition=right;points=[];portConstraint=eastwest;strokeColor=inherit;" vertex="1" parent="1">
          <mxGeometry x="430" y="300" width="40" height="8" as="geometry" />
        </mxCell>
        <mxCell id="ZUUnunzUDBEL_9jYccDT-34" value="" style="line;strokeWidth=1;fillColor=none;align=left;verticalAlign=middle;spacingTop=-1;spacingLeft=3;spacingRight=3;rotatable=0;labelPosition=right;points=[];portConstraint=eastwest;strokeColor=inherit;" vertex="1" parent="1">
          <mxGeometry x="130" y="10" width="40" height="80" as="geometry" />
        </mxCell>
        <mxCell id="ZUUnunzUDBEL_9jYccDT-54" value="Utilisateur" style="swimlane;fontStyle=0;childLayout=stackLayout;horizontal=1;startSize=26;fillColor=none;horizontalStack=0;resizeParent=1;resizeParentMax=0;resizeLast=0;collapsible=1;marginBottom=0;whiteSpace=wrap;html=1;" vertex="1" parent="1">
          <mxGeometry x="220" y="750" width="140" height="130" as="geometry" />
        </mxCell>
        <mxCell id="ZUUnunzUDBEL_9jYccDT-55" value="Nom" style="text;strokeColor=none;fillColor=none;align=left;verticalAlign=top;spacingLeft=4;spacingRight=4;overflow=hidden;rotatable=0;points=[[0,0.5],[1,0.5]];portConstraint=eastwest;whiteSpace=wrap;html=1;" vertex="1" parent="ZUUnunzUDBEL_9jYccDT-54">
          <mxGeometry y="26" width="140" height="26" as="geometry" />
        </mxCell>
        <mxCell id="ZUUnunzUDBEL_9jYccDT-56" value="Adresse mail" style="text;strokeColor=none;fillColor=none;align=left;verticalAlign=top;spacingLeft=4;spacingRight=4;overflow=hidden;rotatable=0;points=[[0,0.5],[1,0.5]];portConstraint=eastwest;whiteSpace=wrap;html=1;" vertex="1" parent="ZUUnunzUDBEL_9jYccDT-54">
          <mxGeometry y="52" width="140" height="26" as="geometry" />
        </mxCell>
        <mxCell id="ZUUnunzUDBEL_9jYccDT-57" value="Mot de passe&lt;br&gt;&lt;br&gt;Sexe" style="text;strokeColor=none;fillColor=none;align=left;verticalAlign=top;spacingLeft=4;spacingRight=4;overflow=hidden;rotatable=0;points=[[0,0.5],[1,0.5]];portConstraint=eastwest;whiteSpace=wrap;html=1;" vertex="1" parent="ZUUnunzUDBEL_9jYccDT-54">
          <mxGeometry y="78" width="140" height="52" as="geometry" />
        </mxCell>
        <mxCell id="ZUUnunzUDBEL_9jYccDT-59" value="Vetements" style="swimlane;fontStyle=0;childLayout=stackLayout;horizontal=1;startSize=26;fillColor=none;horizontalStack=0;resizeParent=1;resizeParentMax=0;resizeLast=0;collapsible=1;marginBottom=0;whiteSpace=wrap;html=1;" vertex="1" parent="1">
          <mxGeometry x="590" y="750" width="140" height="140" as="geometry" />
        </mxCell>
        <mxCell id="ZUUnunzUDBEL_9jYccDT-60" value="Nom" style="text;strokeColor=none;fillColor=none;align=left;verticalAlign=top;spacingLeft=4;spacingRight=4;overflow=hidden;rotatable=0;points=[[0,0.5],[1,0.5]];portConstraint=eastwest;whiteSpace=wrap;html=1;" vertex="1" parent="ZUUnunzUDBEL_9jYccDT-59">
          <mxGeometry y="26" width="140" height="26" as="geometry" />
        </mxCell>
        <mxCell id="ZUUnunzUDBEL_9jYccDT-61" value="Categorie" style="text;strokeColor=none;fillColor=none;align=left;verticalAlign=top;spacingLeft=4;spacingRight=4;overflow=hidden;rotatable=0;points=[[0,0.5],[1,0.5]];portConstraint=eastwest;whiteSpace=wrap;html=1;" vertex="1" parent="ZUUnunzUDBEL_9jYccDT-59">
          <mxGeometry y="52" width="140" height="26" as="geometry" />
        </mxCell>
        <mxCell id="ZUUnunzUDBEL_9jYccDT-62" value="Taille&lt;br&gt;&lt;br&gt;Couleur" style="text;strokeColor=none;fillColor=none;align=left;verticalAlign=top;spacingLeft=4;spacingRight=4;overflow=hidden;rotatable=0;points=[[0,0.5],[1,0.5]];portConstraint=eastwest;whiteSpace=wrap;html=1;" vertex="1" parent="ZUUnunzUDBEL_9jYccDT-59">
          <mxGeometry y="78" width="140" height="62" as="geometry" />
        </mxCell>
        <mxCell id="ZUUnunzUDBEL_9jYccDT-63" value="Panier" style="swimlane;fontStyle=0;childLayout=stackLayout;horizontal=1;startSize=26;fillColor=none;horizontalStack=0;resizeParent=1;resizeParentMax=0;resizeLast=0;collapsible=1;marginBottom=0;whiteSpace=wrap;html=1;" vertex="1" parent="1">
          <mxGeometry x="400" y="750" width="140" height="78" as="geometry" />
        </mxCell>
        <mxCell id="ZUUnunzUDBEL_9jYccDT-64" value="Article" style="text;strokeColor=none;fillColor=none;align=left;verticalAlign=top;spacingLeft=4;spacingRight=4;overflow=hidden;rotatable=0;points=[[0,0.5],[1,0.5]];portConstraint=eastwest;whiteSpace=wrap;html=1;" vertex="1" parent="ZUUnunzUDBEL_9jYccDT-63">
          <mxGeometry y="26" width="140" height="26" as="geometry" />
        </mxCell>
        <mxCell id="ZUUnunzUDBEL_9jYccDT-65" value="Paiement" style="text;strokeColor=none;fillColor=none;align=left;verticalAlign=top;spacingLeft=4;spacingRight=4;overflow=hidden;rotatable=0;points=[[0,0.5],[1,0.5]];portConstraint=eastwest;whiteSpace=wrap;html=1;" vertex="1" parent="ZUUnunzUDBEL_9jYccDT-63">
          <mxGeometry y="52" width="140" height="26" as="geometry" />
        </mxCell>
      </root>
    </mxGraphModel>
  </diagram>
</mxfile>
